<svg width="32" height="32" viewBox="0 0 32 32" fill="none" xmlns="http://www.w3.org/2000/svg">
<g clip-path="url(#clip0_28_8)">
<path d="M11.4804 22.7793L13.7402 9.22072" stroke="#9CA3AF" stroke-width="2" stroke-linecap="round" stroke-linejoin="round"/>
<path d="M18.2598 22.7793L20.5195 9.22072" stroke="#9CA3AF" stroke-width="2" stroke-linecap="round" stroke-linejoin="round"/>
<path d="M23.467 12.6595H9.71198" stroke="#9CA3AF" stroke-width="2" stroke-linecap="round" stroke-linejoin="round"/>
<path d="M22.2879 19.3405H8.5329" stroke="#9CA3AF" stroke-width="2" stroke-linecap="round" stroke-linejoin="round"/>
<mask id="path-5-inside-1_28_8" fill="white">
<path d="M27.3137 4.68622C33.5621 10.9346 33.5621 21.0653 27.3137 27.3137C21.0652 33.5621 10.9346 33.5621 4.68619 27.3137C-1.56223 21.0653 -1.56223 10.9346 4.68619 4.68622C10.9346 -1.5622 21.0653 -1.5622 27.3137 4.68622"/>
</mask>
<path d="M28.7279 3.27201C27.9468 2.49096 26.6805 2.49096 25.8994 3.27201C25.1184 4.05306 25.1184 5.31939 25.8994 6.10043L28.7279 3.27201ZM27.3137 27.3137L25.8995 25.8995L25.8994 25.8995L27.3137 27.3137ZM4.68619 27.3137L6.10041 25.8995L6.1004 25.8995L4.68619 27.3137ZM4.68619 4.68622L6.1004 6.10044L6.1004 6.10043L4.68619 4.68622ZM25.8994 6.10043C26.6805 6.88148 27.9468 6.88148 28.7279 6.10044C29.5089 5.31939 29.5089 4.05306 28.7279 3.27201L25.8994 6.10043ZM25.8994 6.10043C31.3668 11.5678 31.3668 20.4321 25.8995 25.8995L28.7279 28.7279C35.7573 21.6985 35.7573 10.3015 28.7279 3.27201L25.8994 6.10043ZM25.8994 25.8995C20.4321 31.3668 11.5677 31.3668 6.10041 25.8995L3.27197 28.7279C10.3014 35.7574 21.6984 35.7574 28.7279 28.7279L25.8994 25.8995ZM6.1004 25.8995C0.633034 20.4321 0.633039 11.5678 6.1004 6.10044L3.27198 3.272C-3.75749 10.3014 -3.75749 21.6984 3.27198 28.7279L6.1004 25.8995ZM6.1004 6.10043C11.5678 0.633064 20.4321 0.63307 25.8994 6.10043L28.7279 3.27201C21.6984 -3.75746 10.3014 -3.75746 3.27198 3.27201L6.1004 6.10043Z" fill="#9CA3AF" mask="url(#path-5-inside-1_28_8)"/>
</g>
<defs>
<clipPath id="clip0_28_8">
<rect width="32" height="32" fill="white"/>
</clipPath>
</defs>
</svg>
