<svg width="24" height="24" viewBox="0 0 24 24" fill="none" xmlns="http://www.w3.org/2000/svg">
<path d="M11.9926 5C11.9926 5 4.49158 5.00001 2.60893 5.46603C1.6009 5.73434 0.770861 6.52507 0.489204 7.49948C1.11457e-05 9.29294 0 13.0071 0 13.0071C0 13.0071 1.11457e-05 16.7353 0.489204 18.5005C0.770861 19.4749 1.58607 20.2515 2.60893 20.5198C4.5064 21 11.9926 21 11.9926 21C11.9926 21 19.5084 21 21.391 20.534C22.4139 20.2657 23.2291 19.5032 23.4959 18.5147C23.9999 16.7353 24 13.0212 24 13.0212C24 13.0212 24.0148 9.29294 23.4959 7.49948C23.2291 6.52507 22.4139 5.74848 21.391 5.49429C19.5084 5.00002 11.9926 5 11.9926 5V5ZM9.60587 9.57553L15.8469 13.0071L9.60587 16.4245V9.57553V9.57553Z" fill="white"/>
</svg>
