<svg width="154" height="82" viewBox="0 0 154 82" fill="none" xmlns="http://www.w3.org/2000/svg">
<path d="M76.2933 36.2076L75.5884 36.4898L75.6708 37.2445C75.8056 38.4791 75.8766 39.731 75.8766 40.9996C75.8766 42.2683 75.8056 43.5209 75.6708 44.7547L75.5883 45.5095L76.2933 45.7917L80.8876 47.6309C80.6289 49.1678 80.2832 50.6745 79.8535 52.146L74.8978 51.8297L74.1458 51.7817L73.8924 52.4914C73.0401 54.878 71.93 57.1434 70.5935 59.2563L70.1842 59.9035L70.7022 60.4674L74.029 64.0889C73.1228 65.3528 72.1441 66.5626 71.0996 67.7126L66.7747 65.3015L66.1207 64.9368L65.5867 65.4618C63.7906 67.2274 61.8021 68.8021 59.6532 70.1483L59.0072 70.553L59.2263 71.2831L60.6348 75.9765C59.2704 76.7271 57.8583 77.4021 56.4033 77.9952L53.5659 73.9681L53.1338 73.3548L52.4241 73.5981C50.0616 74.4081 47.5802 74.9727 45.0167 75.2635L44.2644 75.3488L44.1424 76.096L43.3527 80.9334C42.5749 80.9776 41.7907 81 41.0004 81C40.2105 81 39.4265 80.9776 38.6482 80.9334L37.8599 76.0962L37.738 75.3487L36.9855 75.2634C34.4199 74.9727 31.9407 74.4081 29.5773 73.5981L28.8677 73.3549L28.4356 73.9681L25.5982 77.9952C24.1431 77.402 22.7307 76.7266 21.3666 75.9758L22.7744 71.2831L22.9934 70.5532L22.3478 70.1485C20.1993 68.8014 18.2107 67.2273 16.4139 65.4616L15.8799 64.9369L15.2261 65.3015L10.9012 67.7126C9.85679 66.5626 8.87809 65.3524 7.97236 64.0888L11.2979 60.4672L11.8155 59.9035L11.4066 59.2565C10.0709 57.1436 8.96138 54.8781 8.10828 52.4911L7.85474 51.7817L7.10292 51.8297L2.14743 52.146C1.71784 50.6742 1.37132 49.1675 1.11245 47.6309L5.70743 45.7917L6.41236 45.5095L6.32992 44.7547C6.19504 43.5198 6.12338 42.2679 6.12338 40.9996C6.12338 39.731 6.19434 38.4793 6.32986 37.2451L6.41278 36.4899L5.70743 36.2076L1.11242 34.3684C1.37121 32.8315 1.71738 31.3248 2.14722 29.8533L7.10292 30.1696L7.85474 30.2176L8.10828 29.5082C8.96138 27.1212 10.0709 24.8557 11.4066 22.7427L11.8156 22.0956L11.2978 21.5319L7.97225 17.9116C8.87792 16.6474 9.85664 15.4375 10.9012 14.2874L15.2261 16.6986L15.8799 17.0631L16.4139 16.5384C18.2108 14.7726 20.1995 13.1978 22.3478 11.8508L22.9934 11.446L22.7744 10.7162L21.3666 6.02403C22.7304 5.27322 24.1428 4.59846 25.5983 4.00497L28.4356 8.03194L28.8677 8.64517L29.5773 8.40195C31.9409 7.59185 34.4201 7.02652 36.9855 6.73583L37.738 6.65056L37.8599 5.90306L38.6482 1.06664C39.4267 1.02242 40.211 1 41.0004 1C41.7913 1 42.5751 1.02241 43.3528 1.06662L44.1424 5.90332L44.2644 6.65051L45.0167 6.73582C47.58 7.02652 50.0614 7.59188 52.4241 8.40192L53.1338 8.64523L53.5659 8.03194L56.4033 4.00483C57.8582 4.59796 59.2702 5.27341 60.6347 6.02425L59.2263 10.716L59.0073 11.4458L59.6527 11.8507C61.8015 13.1986 63.7901 14.772 65.5867 16.5382L66.1207 17.0632L66.7747 16.6985L71.0996 14.2874C72.1441 15.4374 73.1229 16.6474 74.029 17.9117L70.703 21.5318L70.1851 22.0956L70.5942 22.7427C71.9299 24.8558 73.0401 27.1212 73.8924 29.5079L74.1458 30.2176L74.8978 30.1696L79.8533 29.8533C80.2827 31.3249 80.6288 32.8316 80.8876 34.3684L76.2933 36.2076Z" fill="url(#paint0_linear_17_11)" stroke="black" stroke-width="2"/>
<path d="M41 13C56.464 13 69 25.536 69 41C69 56.464 56.464 69 41 69C25.536 69 13 56.464 13 41C13 25.536 25.536 13 41 13Z" fill="url(#paint1_linear_17_11)" stroke="black" stroke-width="2"/>
<path d="M24.6392 55H30.1747L31.7216 45.7187H35.7486L39.1747 55H45.2855L41.4119 44.8239C44.608 43.5454 46.6918 40.9503 47.2798 37.3707C48.1364 32.1676 45.2599 28.8182 39.3153 28.8182H28.9858L24.6392 55ZM32.4631 41.2699L33.7926 33.3437H37.5256C40.696 33.3437 42 34.75 41.5781 37.3707C41.1563 39.9659 39.4048 41.2699 36.2216 41.2699H32.4631Z" fill="black"/>
<path d="M56.5942 55.3835C61.4777 55.3835 65.0956 53.0185 66.4891 49.375L61.5161 49.0426C60.7107 50.5383 59.1766 51.3182 57.3612 51.3182C54.5743 51.3182 53.1808 49.8097 53.6794 46.7159L53.705 46.5753H67.0771L67.32 45.0795C68.4323 38.4062 64.955 35.108 59.7519 35.108C53.9735 35.108 49.5502 39.2116 48.5402 45.2713C47.4919 51.4972 50.5473 55.3835 56.5942 55.3835ZM54.3186 43.2003C54.7788 41.0398 56.8627 39.1733 59.2021 39.1733C61.5544 39.1733 62.8712 40.8608 62.4877 43.2003H54.3186Z" fill="black"/>
<path d="M87.5392 40.9631C87.6671 37.3452 85.0208 35.108 79.9327 35.108C75.0492 35.108 71.4824 37.294 70.8688 40.9631C70.3574 44.0185 71.981 46.0383 75.7012 46.7926L78.9739 47.4702C80.6486 47.8281 81.2239 48.3267 81.0961 49.2216C80.9043 50.5 79.3191 51.4972 77.2992 51.4588C75.4838 51.446 74.41 50.6278 74.3205 49.0298L69.0023 49.3111C68.9 53.0312 71.7637 55.3835 77.0946 55.3835C82.0804 55.3835 86.0179 52.929 86.6571 49.1577C87.1301 46.2045 85.4682 44.402 81.7864 43.6222L78.3347 42.9062C76.5833 42.5227 76.1103 41.9858 76.2637 41.1548C76.4554 39.8764 78.0407 38.9687 79.8432 38.9687C81.633 38.9687 82.5151 39.9787 82.5918 41.2699L87.5392 40.9631Z" fill="black"/>
<path d="M102.728 46.6392C102.306 49.2727 100.286 50.6534 98.3302 50.6534C96.2591 50.6534 95.1725 49.2088 95.5432 46.8949L97.4608 35.3636H92.0148L89.9182 47.8665C89.1767 52.456 91.3884 55.2557 95.3387 55.2557C98.2918 55.2557 100.721 53.7344 101.935 51.4332H102.14L101.552 55H106.78L110.053 35.3636H104.607L102.728 46.6392Z" fill="black"/>
<path d="M120.569 28.8182H115.123L110.777 55H116.223L120.569 28.8182Z" fill="black"/>
<path d="M133.943 35.3636H130.235L131.015 30.6591H125.569L124.789 35.3636H122.117L121.427 39.4545H124.112L122.424 49.6818C121.734 53.517 124.035 55.4219 128.036 55.2685C129.443 55.2301 130.478 54.9489 131.092 54.7571L130.887 50.7045C130.606 50.7557 130.018 50.8835 129.506 50.8835C128.42 50.8835 127.717 50.4744 127.972 48.9659L129.558 39.4545H133.265L133.943 35.3636Z" fill="black"/>
<path d="M152.228 40.9631C152.356 37.3452 149.71 35.108 144.622 35.108C139.738 35.108 136.171 37.294 135.558 40.9631C135.046 44.0185 136.67 46.0383 140.39 46.7926L143.663 47.4702C145.338 47.8281 145.913 48.3267 145.785 49.2216C145.593 50.5 144.008 51.4972 141.988 51.4588C140.173 51.446 139.099 50.6278 139.009 49.0298L133.691 49.3111C133.589 53.0312 136.453 55.3835 141.784 55.3835C146.769 55.3835 150.707 52.929 151.346 49.1577C151.819 46.2045 150.157 44.402 146.475 43.6222L143.024 42.9062C141.272 42.5227 140.799 41.9858 140.953 41.1548C141.144 39.8764 142.73 38.9687 144.532 38.9687C146.322 38.9687 147.204 39.9787 147.281 41.2699L152.228 40.9631Z" fill="black"/>
<path fill-rule="evenodd" clip-rule="evenodd" d="M23.8764 55.6466C23.6864 55.4225 23.6046 55.1261 23.6527 54.8362L27.9993 28.6544C28.0794 28.1719 28.4967 27.8182 28.9858 27.8182H39.3153C42.4611 27.8182 44.9805 28.7058 46.5873 30.4699C48.2047 32.2456 48.729 34.7232 48.2666 37.5328C47.6798 41.1048 45.7057 43.8261 42.6815 45.3481L46.2201 54.6442C46.3371 54.9516 46.2955 55.2968 46.1088 55.5676C45.9222 55.8383 45.6144 56 45.2855 56H39.1747C38.756 56 38.3816 55.7391 38.2366 55.3463L35.0518 46.7187H32.5687L31.1611 55.1644C31.0807 55.6466 30.6635 56 30.1747 56H24.6392C24.3454 56 24.0664 55.8708 23.8764 55.6466ZM31.7216 45.7187H35.7486L39.1747 55H45.2855L41.4119 44.8239C44.6079 43.5455 46.6918 40.9503 47.2798 37.3707C48.1364 32.1676 45.2599 28.8182 39.3153 28.8182H28.9858L24.6392 55H30.1747L31.7216 45.7187ZM67.3313 48.8359C67.5024 49.1032 67.5365 49.4358 67.4231 49.7322C65.8548 53.8328 61.8118 56.3835 56.5942 56.3835C53.3585 56.3835 50.7527 55.337 49.1232 53.2837C47.5031 51.2423 47 48.3959 47.5541 45.1053C48.6341 38.6292 53.4221 34.108 59.7519 34.108C62.5565 34.108 65.0492 35.001 66.6728 36.9515C68.2967 38.9025 68.8931 41.7216 68.3068 45.2418C68.3067 45.2425 68.3065 45.2432 68.3064 45.2439L68.0642 46.7356C67.9856 47.2196 67.5676 47.5753 67.0771 47.5753H54.5882C54.5319 48.5561 54.7495 49.1673 55.0575 49.5383C55.4288 49.9853 56.1276 50.3182 57.3612 50.3182C58.8821 50.3182 60.0369 49.6804 60.6356 48.5685C60.8214 48.2234 61.1917 48.0187 61.5827 48.0448L66.5558 48.3772C66.8724 48.3984 67.1602 48.5686 67.3313 48.8359ZM53.705 46.5753H67.0771L67.32 45.0795C68.4323 38.4062 64.955 35.108 59.7519 35.108C53.9734 35.108 49.5501 39.2116 48.5402 45.2713C47.4919 51.4972 50.5473 55.3835 56.5942 55.3835C61.0282 55.3835 64.4188 53.4338 66.0485 50.3478C66.2137 50.0349 66.3608 49.7104 66.4891 49.375L61.5161 49.0426C60.7107 50.5383 59.1766 51.3182 57.3612 51.3182C54.5743 51.3182 53.1808 49.8097 53.6794 46.7159L53.705 46.5753ZM88.5386 40.9984C88.5204 41.5127 88.1148 41.9293 87.6011 41.9611L82.6537 42.268C82.3885 42.2844 82.1277 42.1947 81.9288 42.0185C81.7299 41.8424 81.6093 41.5944 81.5935 41.3292C81.5679 40.8972 81.4155 40.5832 81.1861 40.374C80.9564 40.1646 80.5488 39.9687 79.8432 39.9687C79.1 39.9687 78.4351 40.1576 77.9633 40.4402C77.4853 40.7266 77.2908 41.0487 77.2526 41.3032C77.2509 41.3143 77.2491 41.3253 77.247 41.3364C77.2371 41.3901 77.2361 41.4224 77.2367 41.4385C77.2405 41.4425 77.246 41.448 77.2536 41.4548C77.3676 41.5574 77.7032 41.7438 78.5433 41.9282L81.9936 42.6438C83.9329 43.0546 85.5082 43.7659 86.5267 44.91C87.5832 46.0968 87.9181 47.6081 87.6445 49.3158L87.6431 49.3248C86.8875 53.7829 82.3245 56.3835 77.0946 56.3835C74.3009 56.3835 72.0069 55.7697 70.4014 54.5351C68.7571 53.2707 67.9435 51.4364 68.0027 49.2836C68.017 48.7626 68.429 48.34 68.9495 48.3125L74.2677 48.0312C74.818 48.0021 75.2881 48.4237 75.3189 48.9739C75.3509 49.545 75.543 49.8621 75.7879 50.0584C76.0591 50.2757 76.5324 50.4534 77.3062 50.4588L77.3182 50.4589C78.1658 50.475 78.877 50.2719 79.3681 49.9768C79.8642 49.6787 80.0662 49.3377 80.1066 49.0764C80.1174 48.9988 80.1122 48.9621 80.11 48.9518C80.1055 48.9455 80.0944 48.9325 80.0704 48.9124C79.9316 48.7967 79.5766 48.6218 78.7681 48.4488C78.767 48.4485 78.7659 48.4483 78.7649 48.4481L75.5024 47.7727C75.5017 47.7725 75.501 47.7724 75.5003 47.7722C73.5165 47.3697 71.9324 46.5998 70.9258 45.376C69.8952 44.1229 69.5906 42.5424 69.8825 40.7981C70.6125 36.4329 74.8157 34.108 79.9327 34.108C82.603 34.108 84.7891 34.6923 86.3115 35.8938C87.8737 37.1269 88.6123 38.9122 88.5386 40.9984ZM70.8688 40.9631C70.3574 44.0185 71.981 46.0383 75.7012 46.7926L78.9739 47.4702C80.6486 47.8281 81.2239 48.3267 81.096 49.2216C80.9043 50.5 79.3191 51.4972 77.2992 51.4588C75.4838 51.446 74.41 50.6278 74.3205 49.0298L69.0023 49.3111C68.9 53.0312 71.7637 55.3835 77.0946 55.3835C82.0804 55.3835 86.0179 52.929 86.6571 49.1577C87.1301 46.2045 85.4682 44.402 81.7864 43.6222L78.3347 42.9062C76.5833 42.5227 76.1102 41.9858 76.2637 41.1548C76.4554 39.8764 78.0406 38.9687 79.8432 38.9687C81.6256 38.9687 82.5078 39.9704 82.5908 41.254C82.5911 41.2593 82.5915 41.2646 82.5918 41.2699L87.5392 40.9631C87.6671 37.3452 85.0208 35.108 79.9327 35.108C75.0492 35.108 71.4824 37.294 70.8688 40.9631ZM77.2291 41.4294C77.2291 41.4294 77.2294 41.4298 77.23 41.4307ZM101.74 46.481L101.741 46.4748L103.621 35.1992C103.701 34.717 104.118 34.3636 104.607 34.3636H110.053C110.347 34.3636 110.626 34.493 110.816 34.7173C111.006 34.9415 111.088 35.2381 111.04 35.528L107.767 55.1644C107.686 55.6466 107.269 56 106.78 56H101.552C101.258 56 100.979 55.8709 100.789 55.647C100.599 55.4231 100.517 55.1271 100.565 54.8373L100.619 54.5125C99.1879 55.6143 97.3633 56.2557 95.3387 56.2557C93.1193 56.2557 91.2502 55.4591 90.0687 53.8817C88.9023 52.3245 88.5323 50.1749 88.931 47.707L88.932 47.7011L91.0286 35.1983C91.1094 34.7165 91.5263 34.3636 92.0148 34.3636H97.4608C97.7547 34.3636 98.0337 34.4929 98.2237 34.7171C98.4137 34.9413 98.4955 35.2378 98.4473 35.5277L96.5306 47.0531C96.5305 47.054 96.5303 47.055 96.5302 47.0559C96.3725 48.0435 96.5516 48.68 96.8231 49.0447C97.0776 49.3865 97.535 49.6534 98.3301 49.6534C99.8071 49.6534 101.398 48.6175 101.74 46.481ZM95.5432 46.8949L97.4608 35.3636H92.0148L89.9182 47.8665C89.1767 52.456 91.3884 55.2557 95.3387 55.2557C97.5943 55.2557 99.5442 54.3681 100.881 52.9234C101.294 52.4767 101.648 51.9767 101.935 51.4332H102.14L101.552 55H106.78L110.053 35.3636H104.607L102.728 46.6392C102.306 49.2727 100.286 50.6534 98.3301 50.6534C96.2591 50.6534 95.1725 49.2088 95.5432 46.8949ZM121.332 28.1716C121.522 28.3957 121.604 28.6921 121.556 28.982L117.209 55.1638C117.129 55.6462 116.712 56 116.223 56H110.777C110.483 56 110.204 55.8708 110.014 55.6466C109.824 55.4225 109.742 55.1261 109.79 54.8362L114.137 28.6544C114.217 28.1719 114.634 27.8182 115.123 27.8182H120.569C120.863 27.8182 121.142 27.9474 121.332 28.1716ZM134.705 34.7169C134.895 34.9409 134.977 35.2372 134.929 35.527L134.252 39.6179C134.172 40.1006 133.754 40.4545 133.265 40.4545H130.405L128.959 49.1303L128.958 49.133C128.881 49.5915 128.939 49.7592 128.959 49.7983C128.981 49.8123 129.108 49.8835 129.506 49.8835C129.843 49.8835 130.232 49.8102 130.549 49.7504C130.604 49.7399 130.658 49.7299 130.708 49.7207C130.991 49.6692 131.283 49.7422 131.508 49.9209C131.734 50.0996 131.871 50.3668 131.886 50.6541L132.09 54.7067C132.113 55.1622 131.825 55.5755 131.39 55.7116C130.726 55.919 129.597 56.2256 128.069 56.2679C125.936 56.3488 124.046 55.8929 122.783 54.6971C121.479 53.4626 121.056 51.6482 121.439 49.5117C121.439 49.5094 121.439 49.507 121.44 49.5047L122.933 40.4545H121.427C121.133 40.4545 120.853 40.3249 120.663 40.1001C120.473 39.8754 120.392 39.5783 120.441 39.2881L121.131 35.1972C121.212 34.716 121.629 34.3636 122.117 34.3636H123.941L124.582 30.4956C124.662 30.013 125.08 29.6591 125.569 29.6591H131.015C131.309 29.6591 131.588 29.7883 131.778 30.0124C131.968 30.2365 132.05 30.5328 132.002 30.8226L131.415 34.3636H133.943C134.236 34.3636 134.515 34.4928 134.705 34.7169ZM130.235 35.3636H133.943L133.265 39.4545H129.558L127.972 48.9659C127.717 50.4744 128.42 50.8835 129.506 50.8835C129.633 50.8835 129.764 50.8757 129.894 50.8632C130.217 50.832 130.533 50.7717 130.754 50.7296C130.803 50.7202 130.848 50.7116 130.887 50.7045L131.092 54.7571C130.478 54.9489 129.443 55.2301 128.036 55.2685C124.035 55.4219 121.734 53.517 122.424 49.6818L124.112 39.4545H121.427L122.117 35.3636H124.789L125.569 30.6591H131.015L130.235 35.3636ZM153.227 40.9984C153.209 41.5127 152.804 41.9293 152.29 41.9611L147.343 42.268C147.077 42.2844 146.817 42.1947 146.618 42.0185C146.419 41.8424 146.298 41.5944 146.282 41.3292C146.257 40.8972 146.104 40.5832 145.875 40.374C145.645 40.1646 145.238 39.9687 144.532 39.9687C143.789 39.9687 143.124 40.1576 142.652 40.4402C142.174 40.7266 141.98 41.0487 141.941 41.3032C141.94 41.3143 141.938 41.3253 141.936 41.3364C141.926 41.3901 141.925 41.4224 141.926 41.4385C141.929 41.4425 141.935 41.448 141.943 41.4548C142.057 41.5574 142.392 41.7438 143.232 41.9282C143.234 41.9286 143.236 41.929 143.237 41.9294L146.682 42.6438C148.622 43.0546 150.197 43.7659 151.216 44.91C152.272 46.0968 152.607 47.6081 152.333 49.3158L152.332 49.3248C151.576 53.7829 147.013 56.3835 141.784 56.3835C138.99 56.3835 136.696 55.7697 135.09 54.5351C133.446 53.2707 132.632 51.4364 132.692 49.2836C132.706 48.7626 133.118 48.34 133.638 48.3125L138.957 48.0312C139.507 48.0021 139.977 48.4237 140.008 48.9739C140.04 49.545 140.232 49.8621 140.477 50.0584C140.748 50.2757 141.221 50.4534 141.995 50.4588L142.007 50.4589C142.855 50.475 143.566 50.2719 144.057 49.9768C144.553 49.6788 144.755 49.3379 144.795 49.0767C144.806 48.9989 144.801 48.9621 144.799 48.9518C144.794 48.9455 144.783 48.9325 144.759 48.9124C144.621 48.7967 144.265 48.6218 143.457 48.4488C143.456 48.4485 143.455 48.4483 143.454 48.4481L140.191 47.7727C140.191 47.7725 140.19 47.7723 140.189 47.7722C138.205 47.3696 136.621 46.5997 135.615 45.376C134.584 44.1229 134.279 42.5423 134.571 40.798C135.302 36.4328 139.505 34.108 144.622 34.108C147.292 34.108 149.478 34.6923 151 35.8938C152.563 37.1269 153.301 38.9122 153.227 40.9984ZM135.558 40.9631C135.046 44.0185 136.67 46.0383 140.39 46.7926L143.663 47.4702C145.338 47.8281 145.913 48.3267 145.785 49.2216C145.593 50.5 144.008 51.4972 141.988 51.4588C140.173 51.446 139.099 50.6278 139.009 49.0298L133.691 49.3111C133.589 53.0312 136.453 55.3835 141.784 55.3835C146.769 55.3835 150.707 52.929 151.346 49.1577C151.819 46.2045 150.157 44.402 146.475 43.6222L143.024 42.9062C141.272 42.5227 140.799 41.9858 140.953 41.1548C141.144 39.8764 142.73 38.9687 144.532 38.9687C146.315 38.9687 147.197 39.9704 147.28 41.254C147.28 41.2593 147.28 41.2646 147.281 41.2699L152.228 40.9631C152.356 37.3452 149.71 35.108 144.622 35.108C139.738 35.108 136.171 37.294 135.558 40.9631ZM32.4631 41.2699H36.2216C39.4048 41.2699 41.1562 39.9659 41.5781 37.3707C42 34.75 40.696 33.3437 37.5256 33.3437H33.7926L32.4631 41.2699ZM33.6448 40.2699L34.6388 34.3437H37.5256C39.0006 34.3437 39.7926 34.6767 40.1868 35.0765C40.5483 35.4432 40.7738 36.0742 40.5909 37.2111C40.4126 38.307 39.9781 39.0229 39.3447 39.4866C38.6879 39.9674 37.6902 40.2699 36.2216 40.2699H33.6448ZM54.3186 43.2003H62.4876C62.8712 40.8608 61.5544 39.1733 59.2021 39.1733C57.2339 39.1733 55.4466 40.4944 54.6549 42.2003C54.5056 42.522 54.3916 42.8574 54.3186 43.2003ZM55.7872 42.2003C56.5046 41.0312 57.8173 40.1733 59.2021 40.1733C60.1317 40.1733 60.7391 40.4985 61.092 40.9367C61.3364 41.2402 61.5098 41.6616 61.5465 42.2003H55.7872ZM115.123 28.8182H120.569L116.223 55H110.777L115.123 28.8182Z" fill="black"/>
<path d="M22.6392 52H28.1747L29.7216 42.7187H33.7486L37.1747 52H43.2855L39.4119 41.8239C42.608 40.5454 44.6918 37.9503 45.2798 34.3707C46.1364 29.1676 43.2599 25.8182 37.3153 25.8182H26.9858L22.6392 52ZM30.4631 38.2699L31.7926 30.3437H35.5256C38.696 30.3437 40 31.75 39.5781 34.3707C39.1563 36.9659 37.4048 38.2699 34.2216 38.2699H30.4631Z" fill="url(#paint2_linear_17_11)"/>
<path d="M54.5942 52.3835C59.4777 52.3835 63.0956 50.0185 64.4891 46.375L59.5161 46.0426C58.7107 47.5383 57.1766 48.3182 55.3612 48.3182C52.5743 48.3182 51.1808 46.8097 51.6794 43.7159L51.705 43.5753H65.0771L65.32 42.0795C66.4323 35.4062 62.955 32.108 57.7519 32.108C51.9735 32.108 47.5502 36.2116 46.5402 42.2713C45.4919 48.4972 48.5473 52.3835 54.5942 52.3835ZM52.3186 40.2003C52.7788 38.0398 54.8627 36.1733 57.2021 36.1733C59.5544 36.1733 60.8712 37.8608 60.4877 40.2003H52.3186Z" fill="url(#paint3_linear_17_11)"/>
<path d="M85.5392 37.9631C85.6671 34.3452 83.0208 32.108 77.9327 32.108C73.0492 32.108 69.4824 34.294 68.8688 37.9631C68.3574 41.0185 69.981 43.0383 73.7012 43.7926L76.9739 44.4702C78.6486 44.8281 79.2239 45.3267 79.0961 46.2216C78.9043 47.5 77.3191 48.4972 75.2992 48.4588C73.4838 48.446 72.41 47.6278 72.3205 46.0298L67.0023 46.3111C66.9 50.0312 69.7637 52.3835 75.0946 52.3835C80.0804 52.3835 84.0179 49.929 84.6571 46.1577C85.1301 43.2045 83.4682 41.402 79.7864 40.6222L76.3347 39.9062C74.5833 39.5227 74.1103 38.9858 74.2637 38.1548C74.4554 36.8764 76.0407 35.9687 77.8432 35.9687C79.633 35.9687 80.5151 36.9787 80.5918 38.2699L85.5392 37.9631Z" fill="url(#paint4_linear_17_11)"/>
<path d="M100.728 43.6392C100.306 46.2727 98.2861 47.6534 96.3302 47.6534C94.2591 47.6534 93.1725 46.2088 93.5432 43.8949L95.4608 32.3636H90.0148L87.9182 44.8665C87.1767 49.456 89.3884 52.2557 93.3387 52.2557C96.2918 52.2557 98.7208 50.7344 99.9353 48.4332H100.14L99.5518 52H104.78L108.053 32.3636H102.607L100.728 43.6392Z" fill="url(#paint5_linear_17_11)"/>
<path d="M118.569 25.8182H113.123L108.777 52H114.223L118.569 25.8182Z" fill="url(#paint6_linear_17_11)"/>
<path d="M131.943 32.3636H128.235L129.015 27.6591H123.569L122.789 32.3636H120.117L119.427 36.4545H122.112L120.424 46.6818C119.734 50.517 122.035 52.4219 126.036 52.2685C127.443 52.2301 128.478 51.9489 129.092 51.7571L128.887 47.7045C128.606 47.7557 128.018 47.8835 127.506 47.8835C126.42 47.8835 125.717 47.4744 125.972 45.9659L127.558 36.4545H131.265L131.943 32.3636Z" fill="url(#paint7_linear_17_11)"/>
<path d="M150.228 37.9631C150.356 34.3452 147.71 32.108 142.622 32.108C137.738 32.108 134.171 34.294 133.558 37.9631C133.046 41.0185 134.67 43.0383 138.39 43.7926L141.663 44.4702C143.338 44.8281 143.913 45.3267 143.785 46.2216C143.593 47.5 142.008 48.4972 139.988 48.4588C138.173 48.446 137.099 47.6278 137.009 46.0298L131.691 46.3111C131.589 50.0312 134.453 52.3835 139.784 52.3835C144.769 52.3835 148.707 49.929 149.346 46.1577C149.819 43.2045 148.157 41.402 144.475 40.6222L141.024 39.9062C139.272 39.5227 138.799 38.9858 138.953 38.1548C139.144 36.8764 140.73 35.9687 142.532 35.9687C144.322 35.9687 145.204 36.9787 145.281 38.2699L150.228 37.9631Z" fill="url(#paint8_linear_17_11)"/>
<path fill-rule="evenodd" clip-rule="evenodd" d="M21.495 52.9699C21.21 52.6337 21.0873 52.1891 21.1595 51.7543L25.506 25.5725C25.6262 24.8488 26.2522 24.3182 26.9858 24.3182H37.3153C40.5479 24.3182 43.2243 25.231 44.9569 27.1332C46.7055 29.053 47.2396 31.7005 46.7599 34.6144C46.1738 38.1813 44.2505 40.9537 41.3061 42.5836L44.6874 51.4664C44.8629 51.9274 44.8005 52.4452 44.5205 52.8513C44.2405 53.2575 43.7788 53.5 43.2855 53.5H37.1747C36.5466 53.5 35.985 53.1087 35.7675 52.5195L32.7034 44.2187H30.9923L29.6543 52.2466C29.5338 52.9699 28.908 53.5 28.1747 53.5H22.6392C22.1984 53.5 21.78 53.3061 21.495 52.9699ZM29.7216 42.7187H33.7486L37.1747 52H43.2855L39.4119 41.8239C42.608 40.5455 44.6918 37.9503 45.2798 34.3707C46.1364 29.1676 43.2599 25.8182 37.3153 25.8182H26.9858L22.6392 52H28.1747L29.7216 42.7187ZM65.7248 45.5247C65.9754 45.1182 66.4148 44.84 66.9231 44.8132L71.1758 44.5883C70.1132 44.1347 69.2144 43.514 68.5396 42.6936C67.3972 41.3046 67.0793 39.5681 67.3894 37.7155C68.1777 33.0022 72.699 30.608 77.9327 30.608C80.6662 30.608 82.9785 31.2048 84.6213 32.5014C86.3238 33.8451 87.1169 35.7912 87.0383 38.016C87.011 38.7876 86.4026 39.4124 85.6321 39.4602L81.9688 39.6874C83.1468 40.126 84.152 40.7371 84.9002 41.5775C86.0766 42.899 86.4303 44.5716 86.1382 46.3949L86.1361 46.4083C85.3223 51.2099 80.4465 53.8835 75.0946 53.8835C72.2368 53.8835 69.8202 53.2568 68.0966 51.9315C66.6785 50.8409 65.8346 49.3561 65.5811 47.6362C63.7444 51.5334 59.6712 53.8835 54.5942 53.8835C51.2524 53.8835 48.4814 52.7995 46.7316 50.5946C44.9961 48.4078 44.4922 45.403 45.0607 42.0244C46.1751 35.339 51.1458 30.608 57.7519 30.608C60.658 30.608 63.3121 31.5353 65.0571 33.6316C66.8027 35.7289 67.4016 38.7112 66.8001 42.3235L66.7996 42.3261L66.5577 43.8157C66.4478 44.4926 65.8955 45.002 65.2252 45.068C65.4221 45.1789 65.5937 45.3342 65.7248 45.5247ZM58.3696 45.0753C58.3036 45.1535 58.2451 45.2391 58.1954 45.3315C57.7 46.2515 56.7349 46.8182 55.3612 46.8182C54.2075 46.8182 53.6819 46.5074 53.4422 46.2188C53.2788 46.0221 53.1139 45.6747 53.0839 45.0753H58.3696ZM51.705 43.5753H65.0771L65.32 42.0795C66.4323 35.4062 62.955 32.108 57.7519 32.108C51.9734 32.108 47.5502 36.2116 46.5402 42.2713C45.4919 48.4972 48.5473 52.3835 54.5942 52.3835C58.7923 52.3835 62.0551 50.6357 63.7736 47.8305C64.0541 47.3725 64.2935 46.8864 64.4891 46.375L59.5161 46.0426C58.7107 47.5383 57.1766 48.3182 55.3612 48.3182C52.5743 48.3182 51.1808 46.8097 51.6794 43.7159L51.705 43.5753ZM79.2725 38.9836C79.1692 38.7927 79.1075 38.5797 79.0944 38.3588C79.0751 38.0337 78.9663 37.8503 78.8491 37.7434C78.7316 37.6363 78.4542 37.4687 77.8432 37.4687C77.1791 37.4687 76.6051 37.6386 76.2202 37.8692C76.0121 37.9938 75.8945 38.1111 75.8284 38.2033C76.0106 38.2762 76.2744 38.3572 76.6478 38.4393L79.2725 38.9836ZM76.3347 39.9062C74.5833 39.5227 74.1103 38.9858 74.2637 38.1548C74.4554 36.8764 76.0407 35.9687 77.8432 35.9687C79.6257 35.9687 80.5078 36.9704 80.5908 38.254C80.5911 38.2593 80.5915 38.2646 80.5918 38.2699L85.5392 37.9631C85.555 37.5157 85.5284 37.0894 85.46 36.6859C85.4476 36.6124 85.4337 36.5396 85.4185 36.4677C84.8412 33.7389 82.277 32.108 77.9327 32.108C73.0492 32.108 69.4824 34.294 68.8688 37.9631C68.3574 41.0185 69.981 43.0383 73.7012 43.7926L76.9739 44.4702C78.6486 44.8281 79.2239 45.3267 79.096 46.2216C78.9043 47.5 77.3191 48.4972 75.2992 48.4588C73.4838 48.446 72.41 47.6278 72.3205 46.0298L67.0023 46.3111C66.9922 46.679 67.0111 47.0335 67.0585 47.3737C67.079 47.5205 67.1047 47.6647 67.1358 47.8061C67.7603 50.6502 70.5184 52.3835 75.0946 52.3835C80.0804 52.3835 84.0179 49.929 84.6571 46.1577C85.1301 43.2045 83.4682 41.402 79.7864 40.6222L76.3347 39.9062ZM77.5291 46.1839C77.5165 46.1788 77.5032 46.1735 77.4894 46.1682C77.3009 46.0954 77.0346 46.0172 76.6649 45.938L76.6604 45.937L73.6376 45.3112C73.7412 45.5009 73.8053 45.7159 73.8181 45.946C73.8437 46.4031 73.9864 46.5767 74.1006 46.6682C74.2541 46.7912 74.6029 46.9539 75.3097 46.9588L75.3276 46.9591C76.0942 46.9736 76.7103 46.7888 77.1105 46.5483C77.3335 46.4143 77.4591 46.2854 77.5291 46.1839ZM99.2468 43.4019L99.2483 43.3926L101.128 32.117C101.248 31.3938 101.874 30.8636 102.607 30.8636H108.053C108.494 30.8636 108.913 31.0576 109.198 31.3941C109.483 31.7305 109.605 32.1753 109.533 32.6102L106.26 52.2466C106.139 52.9699 105.514 53.5 104.78 53.5H99.5517C99.1113 53.5 98.6931 53.3064 98.4081 52.9706C98.2785 52.8179 98.1824 52.6428 98.1229 52.4564C96.7492 53.2868 95.1139 53.7557 93.3387 53.7557C90.9972 53.7557 88.9638 52.9107 87.6685 51.1814C86.3959 49.4824 86.0247 47.1817 86.4374 44.6272L86.4388 44.6184L88.5355 32.1156C88.6566 31.393 89.2821 30.8636 90.0148 30.8636H95.4608C95.9017 30.8636 96.3202 31.0575 96.6052 31.3939C96.8902 31.7302 97.0128 32.1748 96.9405 32.6097L95.0243 44.1322L95.0236 44.1368C94.8799 45.0392 95.0589 45.5241 95.2242 45.7461C95.3638 45.9336 95.6552 46.1534 96.3301 46.1534C97.5676 46.1534 98.9443 45.29 99.2468 43.4019ZM93.5432 43.8949L95.4608 32.3636H90.0148L87.9182 44.8665C87.1767 49.456 89.3884 52.2557 93.3387 52.2557C95.2758 52.2557 96.9874 51.6011 98.2786 50.5012C98.9558 49.9243 99.5174 49.2249 99.9353 48.4332H100.14L99.5517 52H104.78L108.053 32.3636H102.607L100.728 43.6392C100.306 46.2727 98.2861 47.6534 96.3301 47.6534C94.2591 47.6534 93.1725 46.2088 93.5432 43.8949ZM30.4631 38.2699H34.2216C37.4048 38.2699 39.1562 36.9659 39.5781 34.3707C40 31.75 38.696 30.3437 35.5256 30.3437H31.7926L30.4631 38.2699ZM32.2356 36.7699H34.2216C35.6287 36.7699 36.5084 36.4791 37.0494 36.0831C37.5553 35.7128 37.9354 35.1261 38.0974 34.1312C38.2662 33.0812 38.0382 32.638 37.8308 32.4276C37.5743 32.1674 36.9455 31.8437 35.5256 31.8437H33.062L32.2356 36.7699ZM52.3186 40.2003H60.4877C60.8712 37.8608 59.5544 36.1733 57.2021 36.1733C55.431 36.1733 53.8064 37.2431 52.9219 38.7003C52.6381 39.1679 52.4304 39.6754 52.3186 40.2003ZM54.8265 38.7003H58.9447C58.8815 38.5155 58.7962 38.3665 58.7026 38.2503C58.4609 37.9502 58.0083 37.6733 57.2021 37.6733C56.327 37.6733 55.4707 38.0789 54.8265 38.7003Z" fill="black"/>
<path fill-rule="evenodd" clip-rule="evenodd" d="M150.32 39.4637C151.091 39.4159 151.699 38.7911 151.726 38.0196C151.805 35.7948 151.012 33.8487 149.309 32.5049C147.667 31.2083 145.354 30.6115 142.621 30.6115C137.387 30.6115 132.866 33.0059 132.077 37.7192C131.767 39.5717 132.085 41.3082 133.228 42.6971C133.903 43.5176 134.801 44.1382 135.864 44.5918L131.611 44.8167C130.831 44.858 130.212 45.4919 130.191 46.2734C130.128 48.5725 131.003 50.5649 132.785 51.935C134.508 53.2603 136.925 53.8871 139.783 53.8871C145.135 53.8871 150.01 51.2135 150.824 46.4119L150.826 46.3984C151.118 44.5751 150.765 42.9026 149.588 41.5811C148.84 40.7407 147.835 40.1296 146.657 39.6909L150.32 39.4637ZM143.784 46.2251C143.912 45.3302 143.337 44.8317 141.662 44.4737L138.389 43.7962C134.669 43.0419 133.046 41.022 133.557 37.9666C134.171 34.2976 137.737 32.1115 142.621 32.1115C146.965 32.1115 149.529 33.7425 150.107 36.4712L150.227 37.9666L145.28 38.2734L145.279 38.2576C145.196 36.974 144.314 35.9723 142.531 35.9723C140.729 35.9723 139.144 36.88 138.952 38.1584C138.798 38.9893 139.271 39.5263 141.023 39.9098L144.474 40.6257C148.156 41.4055 149.818 43.2081 149.345 46.1612C148.706 49.9325 144.769 52.3871 139.783 52.3871C135.207 52.3871 132.448 50.6537 131.824 47.8097C131.793 47.6682 131.767 47.5241 131.747 47.3773C131.699 47.0371 131.68 46.6825 131.69 46.3146L137.009 46.0334C137.098 47.6314 138.172 48.4496 139.987 48.4623C142.007 48.5007 143.592 47.5035 143.784 46.2251ZM141.336 38.4428C140.962 38.3607 140.699 38.2798 140.517 38.2068C140.583 38.1147 140.7 37.9974 140.908 37.8727C141.293 37.6422 141.867 37.4723 142.531 37.4723C143.142 37.4723 143.42 37.6398 143.537 37.747C143.654 37.8538 143.763 38.0372 143.783 38.3624C143.796 38.5833 143.857 38.7962 143.961 38.9872L141.336 38.4428ZM138.326 45.3148C138.429 45.5044 138.493 45.7195 138.506 45.9495C138.532 46.4066 138.675 46.5803 138.789 46.6717C138.942 46.7948 139.291 46.9574 139.998 46.9624L140.016 46.9626C140.782 46.9772 141.398 46.7923 141.799 46.5518C142.022 46.4178 142.147 46.289 142.217 46.1875C142.211 46.1848 142.204 46.182 142.197 46.1792C142.19 46.1767 142.184 46.1742 142.177 46.1717C141.989 46.0989 141.723 46.0207 141.353 45.9415L138.326 45.3148Z" fill="black"/>
<path fill-rule="evenodd" clip-rule="evenodd" d="M133.099 31.3886C133.384 31.7247 133.506 32.1691 133.434 32.6038L132.757 36.6947C132.637 37.4187 132.011 37.9496 131.277 37.9496H128.84L127.463 46.2117C127.453 46.2743 127.445 46.3293 127.44 46.3774C127.465 46.3782 127.491 46.3786 127.518 46.3786C127.662 46.3786 127.851 46.3595 128.064 46.3262C128.216 46.3025 128.338 46.2793 128.459 46.2562C128.515 46.2454 128.572 46.2346 128.631 46.2238C129.055 46.1466 129.493 46.256 129.831 46.5241C130.169 46.7922 130.376 47.193 130.397 47.624L130.602 51.6766C130.636 52.3598 130.204 52.9798 129.551 53.1839C128.862 53.3991 127.686 53.7185 126.098 53.7628C123.898 53.8457 121.852 53.3806 120.452 52.0553C118.99 50.6721 118.556 48.6684 118.958 46.4225L120.356 37.9496H119.439C118.997 37.9496 118.578 37.7552 118.293 37.418C118.008 37.0809 117.886 36.6353 117.96 36.2L118.65 32.1091C118.772 31.3872 119.397 30.8587 120.129 30.8587H121.529L122.101 27.4089C122.221 26.685 122.847 26.1542 123.581 26.1542H129.027C129.468 26.1542 129.886 26.348 130.171 26.6841C130.456 27.0202 130.579 27.4647 130.507 27.8995L130.016 30.8587H131.955C132.395 30.8587 132.814 31.0525 133.099 31.3886ZM128.247 32.3587H131.955L131.277 36.4496H127.57L125.984 45.961C125.738 47.4169 126.384 47.8487 127.406 47.8771C127.443 47.8781 127.481 47.8786 127.518 47.8786C127.959 47.8786 128.457 47.7837 128.766 47.7247C128.815 47.7152 128.86 47.7067 128.899 47.6996L129.104 51.7522C128.49 51.9439 127.455 52.2252 126.048 52.2635C122.047 52.417 119.746 50.5121 120.436 46.6769L122.124 36.4496H119.439L120.129 32.3587H122.801L123.581 27.6542H129.027L128.247 32.3587Z" fill="black"/>
<path fill-rule="evenodd" clip-rule="evenodd" d="M119.713 24.8537C119.998 25.1899 120.121 25.6344 120.049 26.0693L115.702 52.2511C115.582 52.9748 114.956 53.5054 114.223 53.5054H108.777C108.336 53.5054 107.917 53.3116 107.632 52.9753C107.347 52.6391 107.225 52.1946 107.297 51.7598L111.643 25.5779C111.764 24.8542 112.39 24.3236 113.123 24.3236H118.569C119.01 24.3236 119.428 24.5174 119.713 24.8537ZM113.123 25.8236H118.569L114.223 52.0054H108.777L113.123 25.8236Z" fill="black"/>
<defs>
<linearGradient id="paint0_linear_17_11" x1="63.7346" y1="9.69082" x2="14.1621" y2="73.053" gradientUnits="userSpaceOnUse">
<stop stop-color="#BFBFBF"/>
<stop offset="1" stop-color="#939393"/>
</linearGradient>
<linearGradient id="paint1_linear_17_11" x1="24.7738" y1="63.4405" x2="61.369" y2="21.3214" gradientUnits="userSpaceOnUse">
<stop stop-color="#252D47"/>
<stop offset="1" stop-color="#4F72B5"/>
</linearGradient>
<linearGradient id="paint2_linear_17_11" x1="89.9167" y1="14.9245" x2="75.4323" y2="58.5423" gradientUnits="userSpaceOnUse">
<stop stop-color="#FF5439"/>
<stop offset="1" stop-color="#C82910"/>
</linearGradient>
<linearGradient id="paint3_linear_17_11" x1="89.9167" y1="14.9245" x2="75.4323" y2="58.5423" gradientUnits="userSpaceOnUse">
<stop stop-color="#FF5439"/>
<stop offset="1" stop-color="#C82910"/>
</linearGradient>
<linearGradient id="paint4_linear_17_11" x1="89.9167" y1="14.9245" x2="75.4323" y2="58.5423" gradientUnits="userSpaceOnUse">
<stop stop-color="#FF5439"/>
<stop offset="1" stop-color="#C82910"/>
</linearGradient>
<linearGradient id="paint5_linear_17_11" x1="89.9167" y1="14.9245" x2="75.4323" y2="58.5423" gradientUnits="userSpaceOnUse">
<stop stop-color="#FF5439"/>
<stop offset="1" stop-color="#C82910"/>
</linearGradient>
<linearGradient id="paint6_linear_17_11" x1="89.9167" y1="14.9245" x2="75.4323" y2="58.5423" gradientUnits="userSpaceOnUse">
<stop stop-color="#FF5439"/>
<stop offset="1" stop-color="#C82910"/>
</linearGradient>
<linearGradient id="paint7_linear_17_11" x1="89.9167" y1="14.9245" x2="75.4323" y2="58.5423" gradientUnits="userSpaceOnUse">
<stop stop-color="#FF5439"/>
<stop offset="1" stop-color="#C82910"/>
</linearGradient>
<linearGradient id="paint8_linear_17_11" x1="89.9167" y1="14.9245" x2="75.4323" y2="58.5423" gradientUnits="userSpaceOnUse">
<stop stop-color="#FF5439"/>
<stop offset="1" stop-color="#C82910"/>
</linearGradient>
</defs>
</svg>
